<svg width="500" height="500" viewBox="0 0 500 500" fill="none" xmlns="http://www.w3.org/2000/svg">
<path d="M103.595 475.008C98.045 475.26 93.7565 474.251 90.7294 471.98C87.45 469.71 86.3148 465.422 87.3238 459.115C87.3238 458.358 87.5761 457.223 88.0806 455.71C88.5852 454.196 89.2158 453.187 89.9726 452.682C89.7203 458.989 90.4771 463.404 92.243 465.926C94.0088 468.449 96.9098 469.71 100.946 469.71C110.784 469.71 120.875 466.557 131.218 460.25C141.813 453.944 152.281 445.493 162.624 434.898C160.102 434.141 156.822 432.628 152.786 430.357C149.002 428.339 146.101 426.699 144.083 425.438C133.992 418.122 128.947 409.672 128.947 400.086C128.947 392.77 132.227 384.824 138.785 376.247C145.344 367.67 156.065 358.967 170.949 350.138C180.535 344.336 191.634 339.164 204.248 334.624C216.861 330.083 228.591 326.425 239.438 323.65C243.222 316.335 246.88 309.145 250.412 302.082C253.943 295.018 257.349 287.955 260.628 280.892C261.89 278.117 264.16 272.819 267.439 264.999C270.719 257.179 274.377 247.971 278.413 237.376C282.449 226.781 286.233 215.556 289.765 203.699C293.548 191.591 296.702 179.86 299.224 168.509C301.747 157.157 303.008 147.066 303.008 138.237C303.008 129.66 301.495 122.975 298.468 118.182C295.693 113.389 290.647 110.993 283.332 110.993H282.953C280.935 110.993 279.926 110.362 279.926 109.101C279.926 107.84 281.188 106.957 283.71 106.452C295.819 105.191 304.27 108.092 309.063 115.155C313.856 122.218 316.252 131.552 316.252 143.156C316.252 145.174 316.126 147.319 315.874 149.589C315.874 151.859 315.748 154.256 315.495 156.778C317.009 158.04 318.018 160.184 318.522 163.211C320.036 171.284 321.55 181.879 323.063 194.996C324.829 208.114 326.847 222.493 329.117 238.133C331.388 253.773 334.037 269.666 337.064 285.811C340.343 301.703 344.127 316.713 348.416 330.84C352.956 344.714 358.254 356.444 364.308 366.03C365.569 368.048 367.335 370.697 369.606 373.977C371.876 377.004 374.651 379.779 377.93 382.301C381.21 384.824 384.867 386.085 388.904 386.085C393.192 386.085 397.607 384.319 402.147 380.788C406.184 377.508 409.968 372.967 413.499 367.165C417.031 361.363 420.31 355.183 423.337 348.624C424.851 345.849 426.239 344.462 427.5 344.462C428.761 344.462 429.644 345.219 430.149 346.732C430.905 347.993 431.158 349.255 430.905 350.516C429.896 353.796 427.752 357.706 424.473 362.246C421.446 366.535 418.292 370.571 415.013 374.355C411.733 377.887 409.085 380.409 407.067 381.923C402.526 385.454 398.111 387.977 393.823 389.491C389.787 391.256 386.003 392.139 382.471 392.139C374.146 392.139 366.831 388.986 360.524 382.68C354.47 376.121 349.172 369.31 344.632 362.246C338.325 352.156 333.28 339.417 329.496 324.029C325.964 308.641 323.189 291.991 321.171 274.081C319.153 256.17 317.513 238.511 316.252 221.105C315.243 203.699 314.108 187.807 312.847 173.428C309.819 187.554 305.657 202.06 300.36 216.943C295.062 231.827 289.638 245.575 284.089 258.188C278.791 270.549 274.376 280.135 270.845 286.946C265.295 298.298 259.241 309.65 252.682 321.001C264.286 318.226 276.395 315.704 289.008 313.433C301.621 311.163 312.72 309.019 322.306 307.001H323.442C324.451 307.001 324.955 307.379 324.955 308.136C324.955 308.893 324.324 309.902 323.063 311.163C321.802 312.424 320.162 313.307 318.144 313.812C307.297 315.83 295.567 318.226 282.953 321.001C270.34 323.524 258.484 326.299 247.384 329.326C235.78 349.255 224.05 368.174 212.194 386.085C200.337 403.996 187.346 419.888 173.219 433.763C182.805 436.79 195.04 438.303 209.923 438.303H210.68C210.68 438.303 213.707 438.808 213.707 439.817C213.707 441.331 211.084 443.134 211.084 443.134C211.084 443.134 195.166 441.961 188.355 440.952C181.544 440.195 175.237 438.934 169.435 437.168C158.336 448.016 147.11 456.719 135.758 463.277C124.659 470.089 113.938 473.999 103.595 475.008ZM166.408 431.114C178.517 418.501 190.247 403.743 201.599 386.842C213.203 369.94 224.05 352.282 234.141 333.867C230.861 334.876 227.456 336.011 223.924 337.272C220.392 338.534 216.987 340.047 213.707 341.813C209.419 343.831 203.617 346.732 196.301 350.516C188.986 354.3 181.67 358.336 174.354 362.625C167.291 366.661 161.867 370.319 158.083 373.598C153.038 378.139 149.38 382.553 147.11 386.842C144.84 391.13 143.705 395.293 143.705 399.329C143.705 402.861 144.335 406.266 145.596 409.546C147.11 412.825 148.876 415.978 150.894 419.005C152.155 420.519 154.426 422.537 157.705 425.06C161.237 427.835 164.138 429.853 166.408 431.114Z" fill="#38BDF8"/>
<path d="M250.606 432.419C239.545 442.378 226.818 444.882 212.779 443.565L211.084 443.134C211.084 443.134 209.346 443.54 211.089 440.952C211.277 440.783 208.171 439.817 208.171 439.817V439.054C208.171 439.054 208.48 443.944 208.171 439.817C208.48 443.944 206.443 440.323 207.005 439.817H208.171L211.089 440.952C210.696 441.646 210.68 438.303 210.68 438.303C210.68 438.303 215.881 438.905 222.762 437.122C229.999 435.358 237.461 431.015 245.147 424.095C252.084 417.849 258.157 409.326 263.367 398.524C268.765 387.554 271.724 373.687 272.246 356.924C272.954 339.992 270.081 319.836 263.626 296.456C257.001 272.888 245.304 245.571 228.535 214.505C211.783 183.083 188.459 147.565 158.562 107.952C144.484 124.362 131.503 141.99 119.619 160.837C107.567 179.497 98.1116 198.024 91.253 216.42C84.2256 234.628 80.573 251.495 80.2952 267.021C79.8486 282.359 84.0985 294.996 93.0447 304.932C94.0575 306.056 95.0702 307.181 96.083 308.306C97.2833 309.262 98.4835 310.218 99.6838 311.174C104.335 314.454 108.845 317.013 113.214 318.849C117.771 320.517 122.393 320.938 127.08 320.112C129.78 319.717 131.552 319.989 132.396 320.926C133.409 322.051 133.166 323.289 131.666 324.639C130.353 325.821 128.704 326.627 126.716 327.059C119.685 328.298 113.197 327.69 107.253 325.235C101.496 322.611 96.2074 319.566 91.3877 316.098C88.4622 313.98 85.9022 311.702 83.7079 309.265C75.9432 300.641 71.3002 290.395 69.7788 278.527C68.276 266.302 68.9481 253.476 71.7952 240.05C74.661 226.268 78.9518 212.56 84.6677 198.927C90.571 185.126 96.962 172.243 103.841 160.278C110.907 148.145 117.796 137.699 124.506 128.941C127.974 124.122 131.901 119.058 136.288 113.751C140.674 108.444 145.426 102.977 150.544 97.3504C148.368 94.557 146.192 91.7637 144.017 88.9703C141.841 86.177 139.665 83.3837 137.49 80.5903C135.652 78.1719 134.882 75.8095 135.182 73.5031C135.481 71.1968 136.381 69.3684 137.881 68.018C139.38 66.6676 141.293 65.9641 143.618 65.9073C146.13 65.6817 148.399 66.6937 150.425 68.9433C152.619 71.3804 154.72 73.9019 156.727 76.5078C158.921 78.9449 161.022 81.4663 163.029 84.0722C165.672 81.3528 168.399 78.7271 171.211 76.1952C173.855 73.4757 176.676 70.7657 179.675 68.0649C190.361 58.4435 201.431 50.0033 212.886 42.7443C224.36 35.129 235.628 29.7358 246.69 26.5645C257.94 23.2244 268.393 23.147 278.05 26.3324C279.644 26.5946 280.947 27.2881 281.96 28.4129C283.31 29.9126 283.423 31.1689 282.298 32.1817C280.986 33.3632 278.924 33.5231 276.111 32.6612C266.097 29.4571 253.751 31.5786 239.071 39.0259C224.578 46.3043 209.552 56.9486 193.992 70.9587C190.055 74.5034 186.109 78.2263 182.154 82.1273C178.386 85.8595 174.608 89.7698 170.822 93.8582C196.78 126.835 217.544 158.378 233.113 188.488C248.87 218.429 260.352 246.449 267.558 272.548C274.764 298.647 278.529 322.244 278.852 343.338C279.176 364.432 276.705 382.611 271.439 397.876C266.361 412.971 259.417 424.485 250.606 432.419Z" fill="#38BDF8"/>
</svg>
